<!-- Generated by IcoMoon.io -->
<svg version="1.1" xmlns="http://www.w3.org/2000/svg" width="32" height="32" viewBox="0 0 32 32">
<title>down-arrow</title>
<path d="M31.489 8.129l-1.048-1.056c-0.33-0.33-0.769-0.511-1.238-0.511s-0.908 0.182-1.238 0.511l-11.957 11.958-11.971-11.971c-0.329-0.33-0.769-0.511-1.238-0.511s-0.909 0.181-1.238 0.511l-1.048 1.049c-0.683 0.682-0.683 1.793 0 2.475l14.253 14.304c0.329 0.329 0.768 0.561 1.241 0.561h0.005c0.469 0 0.908-0.232 1.237-0.561l14.24-14.265c0.33-0.329 0.511-0.782 0.511-1.25s-0.182-0.915-0.511-1.244z"></path>
</svg>
